<mxfile host="app.diagrams.net" agent="Mozilla/5.0 (Windows NT 10.0; Win64; x64) AppleWebKit/537.36 (KHTML, like Gecko) Chrome/139.0.0.0 Safari/537.36 Edg/139.0.0.0" version="28.1.1">
  <diagram id="oapBGP9BGAy1PYibaDw2" name="Page-1">
    <mxGraphModel dx="695" dy="778" grid="1" gridSize="10" guides="1" tooltips="1" connect="1" arrows="1" fold="1" page="1" pageScale="1" pageWidth="850" pageHeight="1100" math="0" shadow="0">
      <root>
        <mxCell id="0" />
        <mxCell id="1" parent="0" />
        <mxCell id="q0wGCeZlLBrHEmBIkhtC-1" value="Outputs" style="whiteSpace=wrap;strokeWidth=2;" vertex="1" parent="1">
          <mxGeometry x="30" y="328" width="985" height="104" as="geometry" />
        </mxCell>
        <mxCell id="q0wGCeZlLBrHEmBIkhtC-2" value="Crons" style="whiteSpace=wrap;strokeWidth=2;" vertex="1" parent="1">
          <mxGeometry x="31" y="174" width="962" height="104" as="geometry" />
        </mxCell>
        <mxCell id="q0wGCeZlLBrHEmBIkhtC-3" value="Queues" style="whiteSpace=wrap;strokeWidth=2;" vertex="1" parent="1">
          <mxGeometry x="20" y="20" width="986" height="104" as="geometry" />
        </mxCell>
        <mxCell id="q0wGCeZlLBrHEmBIkhtC-4" value="q_ph (PH offline)" style="whiteSpace=wrap;strokeWidth=2;" vertex="1" parent="1">
          <mxGeometry x="55" y="45" width="183" height="54" as="geometry" />
        </mxCell>
        <mxCell id="q0wGCeZlLBrHEmBIkhtC-5" value="LEADS.synced=false" style="whiteSpace=wrap;strokeWidth=2;" vertex="1" parent="1">
          <mxGeometry x="288" y="45" width="201" height="54" as="geometry" />
        </mxCell>
        <mxCell id="q0wGCeZlLBrHEmBIkhtC-6" value="export retry queue" style="whiteSpace=wrap;strokeWidth=2;" vertex="1" parent="1">
          <mxGeometry x="539" y="45" width="196" height="54" as="geometry" />
        </mxCell>
        <mxCell id="q0wGCeZlLBrHEmBIkhtC-7" value="q_ml (infer retry)" style="whiteSpace=wrap;strokeWidth=2;" vertex="1" parent="1">
          <mxGeometry x="784" y="45" width="186" height="54" as="geometry" />
        </mxCell>
        <mxCell id="q0wGCeZlLBrHEmBIkhtC-8" value="cron_ph_flush" style="whiteSpace=wrap;strokeWidth=2;" vertex="1" parent="1">
          <mxGeometry x="66" y="199" width="161" height="54" as="geometry" />
        </mxCell>
        <mxCell id="q0wGCeZlLBrHEmBIkhtC-9" value="cron_leads_retry" style="whiteSpace=wrap;strokeWidth=2;" vertex="1" parent="1">
          <mxGeometry x="298" y="199" width="181" height="54" as="geometry" />
        </mxCell>
        <mxCell id="q0wGCeZlLBrHEmBIkhtC-10" value="cron_export_retry" style="whiteSpace=wrap;strokeWidth=2;" vertex="1" parent="1">
          <mxGeometry x="541" y="199" width="190" height="54" as="geometry" />
        </mxCell>
        <mxCell id="q0wGCeZlLBrHEmBIkhtC-11" value="cron_ml_retry" style="whiteSpace=wrap;strokeWidth=2;" vertex="1" parent="1">
          <mxGeometry x="797" y="199" width="162" height="54" as="geometry" />
        </mxCell>
        <mxCell id="q0wGCeZlLBrHEmBIkhtC-12" value="AUDIT_LOG" style="whiteSpace=wrap;strokeWidth=2;" vertex="1" parent="1">
          <mxGeometry x="65" y="353" width="141" height="54" as="geometry" />
        </mxCell>
        <mxCell id="q0wGCeZlLBrHEmBIkhtC-13" value="Slack #quiz-alerts" style="whiteSpace=wrap;strokeWidth=2;" vertex="1" parent="1">
          <mxGeometry x="794" y="353" width="187" height="54" as="geometry" />
        </mxCell>
        <mxCell id="q0wGCeZlLBrHEmBIkhtC-14" value="" style="curved=1;startArrow=none;endArrow=block;exitX=0.5;exitY=1;entryX=0.5;entryY=0;rounded=0;" edge="1" parent="1" source="q0wGCeZlLBrHEmBIkhtC-4" target="q0wGCeZlLBrHEmBIkhtC-8">
          <mxGeometry relative="1" as="geometry">
            <Array as="points" />
          </mxGeometry>
        </mxCell>
        <mxCell id="q0wGCeZlLBrHEmBIkhtC-15" value="" style="curved=1;startArrow=none;endArrow=block;exitX=0.4;exitY=1;entryX=0.43;entryY=0;rounded=0;" edge="1" parent="1" source="q0wGCeZlLBrHEmBIkhtC-8" target="q0wGCeZlLBrHEmBIkhtC-12">
          <mxGeometry relative="1" as="geometry">
            <Array as="points">
              <mxPoint x="116" y="278" />
              <mxPoint x="116" y="328" />
            </Array>
          </mxGeometry>
        </mxCell>
        <mxCell id="q0wGCeZlLBrHEmBIkhtC-16" value="" style="curved=1;startArrow=none;endArrow=block;exitX=0.5;exitY=1;entryX=0.5;entryY=0;rounded=0;" edge="1" parent="1" source="q0wGCeZlLBrHEmBIkhtC-5" target="q0wGCeZlLBrHEmBIkhtC-9">
          <mxGeometry relative="1" as="geometry">
            <Array as="points" />
          </mxGeometry>
        </mxCell>
        <mxCell id="q0wGCeZlLBrHEmBIkhtC-17" value="" style="curved=1;startArrow=none;endArrow=block;exitX=0.09;exitY=1;entryX=0.91;entryY=0;rounded=0;" edge="1" parent="1" source="q0wGCeZlLBrHEmBIkhtC-9" target="q0wGCeZlLBrHEmBIkhtC-12">
          <mxGeometry relative="1" as="geometry">
            <Array as="points">
              <mxPoint x="247" y="278" />
              <mxPoint x="247" y="328" />
            </Array>
          </mxGeometry>
        </mxCell>
        <mxCell id="q0wGCeZlLBrHEmBIkhtC-18" value="" style="curved=1;startArrow=none;endArrow=block;exitX=0.5;exitY=1;entryX=0.5;entryY=0;rounded=0;" edge="1" parent="1" source="q0wGCeZlLBrHEmBIkhtC-6" target="q0wGCeZlLBrHEmBIkhtC-10">
          <mxGeometry relative="1" as="geometry">
            <Array as="points" />
          </mxGeometry>
        </mxCell>
        <mxCell id="q0wGCeZlLBrHEmBIkhtC-19" value="" style="curved=1;startArrow=none;endArrow=block;exitX=0;exitY=0.86;entryX=1.01;entryY=0.22;rounded=0;" edge="1" parent="1" source="q0wGCeZlLBrHEmBIkhtC-10" target="q0wGCeZlLBrHEmBIkhtC-12">
          <mxGeometry relative="1" as="geometry">
            <Array as="points">
              <mxPoint x="381" y="278" />
              <mxPoint x="381" y="328" />
            </Array>
          </mxGeometry>
        </mxCell>
        <mxCell id="q0wGCeZlLBrHEmBIkhtC-20" value="" style="curved=1;startArrow=none;endArrow=block;exitX=0.5;exitY=1;entryX=0.5;entryY=0;rounded=0;" edge="1" parent="1" source="q0wGCeZlLBrHEmBIkhtC-7" target="q0wGCeZlLBrHEmBIkhtC-11">
          <mxGeometry relative="1" as="geometry">
            <Array as="points" />
          </mxGeometry>
        </mxCell>
        <mxCell id="q0wGCeZlLBrHEmBIkhtC-21" value="" style="curved=1;startArrow=none;endArrow=block;exitX=0;exitY=0.71;entryX=1.01;entryY=0.32;rounded=0;" edge="1" parent="1" source="q0wGCeZlLBrHEmBIkhtC-11" target="q0wGCeZlLBrHEmBIkhtC-12">
          <mxGeometry relative="1" as="geometry">
            <Array as="points">
              <mxPoint x="512" y="278" />
              <mxPoint x="512" y="328" />
            </Array>
          </mxGeometry>
        </mxCell>
        <mxCell id="q0wGCeZlLBrHEmBIkhtC-22" value="" style="curved=1;startArrow=none;endArrow=block;exitX=1;exitY=0.7;entryX=0;entryY=0.25;rounded=0;" edge="1" parent="1" source="q0wGCeZlLBrHEmBIkhtC-8" target="q0wGCeZlLBrHEmBIkhtC-13">
          <mxGeometry relative="1" as="geometry">
            <Array as="points">
              <mxPoint x="532" y="278" />
              <mxPoint x="532" y="328" />
            </Array>
          </mxGeometry>
        </mxCell>
        <mxCell id="q0wGCeZlLBrHEmBIkhtC-23" value="" style="curved=1;startArrow=none;endArrow=block;exitX=1;exitY=0.82;entryX=0;entryY=0.1;rounded=0;" edge="1" parent="1" source="q0wGCeZlLBrHEmBIkhtC-9" target="q0wGCeZlLBrHEmBIkhtC-13">
          <mxGeometry relative="1" as="geometry">
            <Array as="points">
              <mxPoint x="663" y="278" />
              <mxPoint x="663" y="328" />
            </Array>
          </mxGeometry>
        </mxCell>
        <mxCell id="q0wGCeZlLBrHEmBIkhtC-24" value="" style="curved=1;startArrow=none;endArrow=block;exitX=0.96;exitY=1;entryX=0.27;entryY=0;rounded=0;" edge="1" parent="1" source="q0wGCeZlLBrHEmBIkhtC-10" target="q0wGCeZlLBrHEmBIkhtC-13">
          <mxGeometry relative="1" as="geometry">
            <Array as="points">
              <mxPoint x="805" y="278" />
              <mxPoint x="805" y="328" />
            </Array>
          </mxGeometry>
        </mxCell>
        <mxCell id="q0wGCeZlLBrHEmBIkhtC-25" value="" style="curved=1;startArrow=none;endArrow=block;exitX=0.68;exitY=1;entryX=0.63;entryY=0;rounded=0;" edge="1" parent="1" source="q0wGCeZlLBrHEmBIkhtC-11" target="q0wGCeZlLBrHEmBIkhtC-13">
          <mxGeometry relative="1" as="geometry">
            <Array as="points">
              <mxPoint x="935" y="278" />
              <mxPoint x="935" y="328" />
            </Array>
          </mxGeometry>
        </mxCell>
      </root>
    </mxGraphModel>
  </diagram>
</mxfile>
